<svg width="82" height="82" viewBox="0 0 82 82" fill="none" xmlns="http://www.w3.org/2000/svg">
<circle cx="41" cy="41" r="39.5" fill="black" stroke="#2B49D4" stroke-width="3"/>
<path d="M23 26.7C23 24.6565 24.6565 23 26.7 23H34.1C36.1435 23 37.8 24.6565 37.8 26.7V34.1C37.8 36.1435 36.1435 37.8 34.1 37.8H26.7C24.6565 37.8 23 36.1435 23 34.1V26.7Z" stroke="#2B49D4" stroke-width="3"/>
<path d="M60 30.4C60 34.4869 56.6869 37.8 52.6 37.8C48.5131 37.8 45.2 34.4869 45.2 30.4C45.2 26.3131 48.5131 23 52.6 23C56.6869 23 60 26.3131 60 30.4Z" stroke="#2B49D4" stroke-width="3"/>
<path d="M37.8 52.6C37.8 56.6869 34.4869 60 30.4 60C26.3131 60 23 56.6869 23 52.6C23 48.5131 26.3131 45.2 30.4 45.2C34.4869 45.2 37.8 48.5131 37.8 52.6Z" stroke="#2B49D4" stroke-width="3"/>
<path d="M45.2 48.9C45.2 46.8565 46.8565 45.2 48.9 45.2H56.3C58.3435 45.2 60 46.8565 60 48.9V56.3C60 58.3435 58.3435 60 56.3 60H48.9C46.8565 60 45.2 58.3435 45.2 56.3V48.9Z" stroke="#2B49D4" stroke-width="3"/>
</svg>
