<svg width="82" height="82" viewBox="0 0 82 82" fill="none" xmlns="http://www.w3.org/2000/svg">
<circle cx="41" cy="41" r="39.5" fill="black" stroke="#2B49D4" stroke-width="3"/>
<path d="M60 60L56.9167 56.9167M47.6667 43.5556V51.7778M51.7778 47.6667H43.5556M34.5625 60H31.2222C26.6812 60 23 56.3188 23 51.7778V31.2222C23 26.6812 26.6812 23 31.2222 23H51.7778C56.3188 23 60 26.6812 60 31.2222V34.5625M60 47.6667C60 54.4782 54.4782 60 47.6667 60C40.8552 60 35.3333 54.4782 35.3333 47.6667C35.3333 40.8552 40.8552 35.3333 47.6667 35.3333C54.4782 35.3333 60 40.8552 60 47.6667Z" stroke="#2B49D4" stroke-width="3" stroke-linecap="round"/>
</svg>
