<svg width="565" height="810" viewBox="0 0 565 810" fill="none" xmlns="http://www.w3.org/2000/svg">
<path d="M238.758 144.252C222.632 108.882 247.354 62.9774 293.976 41.7217C340.598 20.466 391.465 31.9079 407.591 67.278C423.716 102.648 398.995 148.552 352.373 169.808C305.751 191.064 254.884 179.622 238.758 144.252Z" fill="#FFD929" stroke="black" stroke-miterlimit="10" stroke-linecap="round" stroke-linejoin="round"/>
<path d="M380.361 126.014C380.361 126.014 399.387 127.539 405.753 116.12C412.119 104.699 394.355 78.2332 378.304 67.6303C362.253 57.0249 322.917 58.4746 303.562 64.2514C284.207 70.0282 263.554 89.2506 263.208 105.499C262.861 121.748 272.311 135.727 273.652 140.584C274.993 145.441 286.51 143.271 287.689 140.495C288.869 137.717 306.727 96.8736 311.354 94.2978C315.978 91.7225 319.889 94.3936 325.778 96.2662C331.666 98.1388 375.64 107.741 375.64 107.741L380.361 126.014Z" fill="black" stroke="black" stroke-miterlimit="10" stroke-linecap="round" stroke-linejoin="round"/>
<path d="M398.238 550.089L396.412 495.759L427.187 556.41L427.185 556.416C433.155 563.284 440.376 572.246 444.278 579.527C451.679 593.342 437.026 644.078 434.558 639.472C432.09 634.867 411.444 573.679 411.444 573.679C411.444 573.679 407.778 563.195 406.897 554.593L398.238 550.089Z" fill="white" stroke="black" stroke-miterlimit="10" stroke-linecap="round" stroke-linejoin="round"/>
<path d="M416.116 585.418C416.116 585.418 434.108 587.989 440.872 623.887C442.716 633.676 448.14 739.128 451.38 756.326C457.49 788.757 464.823 827.673 464.823 827.673L371.414 845.272L347.118 779.701L350.963 847.632L257.275 865.284C257.275 865.284 228.217 762.552 225.053 749.716C221.889 736.88 210.106 709.996 204.936 670.671C199.766 631.348 205.562 614.584 205.562 614.584L411.436 572.065L416.116 585.418Z" fill="black" stroke="black" stroke-miterlimit="10" stroke-linecap="round" stroke-linejoin="round"/>
<path d="M330.655 227.077C330.655 227.077 381.747 256.291 393.224 264.771C405.125 273.563 412.073 333.072 407.052 375.926C402.032 418.779 400.402 483.876 402.153 496.643C403.903 509.408 416.115 585.418 416.115 585.418C416.115 585.418 343.393 631.205 293.904 632.672C244.415 634.138 206.456 620.338 206.456 620.338C206.456 620.338 189.62 489.275 184.258 460.821C178.897 432.366 167.469 336.953 167.597 302.879C167.726 268.805 186.163 245.033 202.247 240.037C218.33 235.042 279.311 220.695 279.311 220.695L330.655 227.077Z" fill="white" stroke="black" stroke-miterlimit="10" stroke-linecap="round" stroke-linejoin="round"/>
<path d="M349 213C349 213 337.707 261.825 334.5 263C331.293 264.176 316.5 260 316.5 260L279.312 220.693L283.859 167.621C283.859 167.621 296.92 192.796 315.603 206.997C334.279 221.197 349 213 349 213Z" fill="white" stroke="black" stroke-miterlimit="10" stroke-linecap="round" stroke-linejoin="round"/>
<path d="M309.001 204L344.001 233.5L348.447 214.161L309.001 204Z" fill="black" stroke="black" stroke-miterlimit="10" stroke-linecap="round" stroke-linejoin="round"/>
<path d="M309.72 78.8451C309.72 78.8451 335.752 92.6796 355.088 95.8499C374.425 99.0202 383.938 99.7838 383.938 99.7838C383.938 99.7838 385.078 137.474 385.37 148.066C385.662 158.659 385.216 176.63 379.206 185.428C373.198 194.226 359.374 206.424 352.001 212.5C344.628 218.573 326.003 213.782 321.501 212.5C317.002 211.217 287.267 187.702 285.103 183C282.94 178.298 283.858 167.618 283.858 167.618C283.858 167.618 272.079 163.876 269.348 158.427C266.618 152.979 266.291 130.894 269.037 127.394C271.785 123.894 277.751 126.178 279.194 129.315C280.637 132.451 284.035 136.92 284.035 136.92C284.035 136.92 282.819 128.206 285.103 122.24C287.388 116.274 287 114.217 293.651 106.573C300.304 98.935 309.72 78.8451 309.72 78.8451Z" fill="white" stroke="black" stroke-miterlimit="10" stroke-linecap="round" stroke-linejoin="round"/>
<path d="M347.501 138.5C348.001 159.5 353.401 166.018 353.401 166.018C353.401 166.018 349.409 169.418 342.001 164" stroke="black" stroke-miterlimit="10" stroke-linecap="round" stroke-linejoin="round"/>
<path d="M358.002 179.63C358.002 179.63 353.725 181.288 337.656 179.63C321.586 177.974 323.002 175.5 323.002 175.5" stroke="black" stroke-miterlimit="10" stroke-linecap="round" stroke-linejoin="round"/>
<path d="M356.399 125.419C356.399 125.419 373 116.329 380.36 126.014" stroke="black" stroke-miterlimit="10" stroke-linecap="round" stroke-linejoin="round"/>
<path d="M337.062 122.245C337.062 122.245 322.887 112.564 311.402 119.414" stroke="black" stroke-miterlimit="10" stroke-linecap="round" stroke-linejoin="round"/>
<path d="M361.21 140.876C360.644 144.298 361.571 147.3 363.281 147.583C364.992 147.866 366.837 145.323 367.403 141.902C367.969 138.481 367.043 135.478 365.332 135.195C363.621 134.912 361.776 137.455 361.21 140.876Z" fill="black"/>
<path d="M320.727 136.334C320.161 139.756 321.088 142.758 322.799 143.041C324.509 143.324 326.355 140.781 326.921 137.36C327.487 133.939 326.56 130.936 324.849 130.653C323.139 130.371 321.293 132.913 320.727 136.334Z" fill="black"/>
<path d="M255.19 302.086L243.453 437.877C243.453 437.877 246.541 443.844 245.991 447.875C245.441 451.906 245.405 455.189 245.405 455.189C245.405 455.189 265.054 503.87 279.745 533.188C294.436 562.506 338.802 624.21 338.967 632.037C339.133 639.863 357.444 695.345 354.125 698.589C350.809 701.832 342.668 707.296 340.14 707.773C337.611 708.249 326.465 711.658 322.673 712.373C318.877 713.088 304.848 715.077 301.366 710.493C297.884 705.91 297.921 702.63 301.952 703.18C305.985 703.729 312.426 703.17 312.426 703.17L314.001 697.634C314.001 697.634 306.67 676.096 306.734 659.06C306.797 642.023 306.989 636.093 306.989 636.093C306.989 636.093 203.757 522.617 196.069 499.183C188.381 475.749 178.317 450.144 176.053 438.128C173.789 426.115 166.064 315.597 167.593 302.869C169.122 290.141 168.757 277.767 176.968 265.744C185.179 253.721 192.135 252.41 197.195 251.457" fill="white"/>
<path d="M255.19 302.086L243.453 437.877C243.453 437.877 246.541 443.844 245.991 447.875C245.441 451.906 245.405 455.189 245.405 455.189C245.405 455.189 265.054 503.87 279.745 533.188C294.436 562.506 338.802 624.21 338.967 632.037C339.133 639.863 357.444 695.345 354.125 698.589C350.809 701.832 342.668 707.296 340.14 707.773C337.611 708.249 326.465 711.658 322.673 712.373C318.877 713.088 304.848 715.077 301.366 710.493C297.884 705.91 297.921 702.63 301.952 703.18C305.985 703.729 312.426 703.17 312.426 703.17L314.001 697.634C314.001 697.634 306.67 676.096 306.734 659.06C306.797 642.023 306.989 636.093 306.989 636.093C306.989 636.093 203.757 522.617 196.069 499.183C188.381 475.749 178.317 450.144 176.053 438.128C173.789 426.115 166.064 315.597 167.593 302.869C169.122 290.141 168.757 277.767 176.968 265.744C185.179 253.721 192.135 252.41 197.195 251.457" stroke="black" stroke-miterlimit="10" stroke-linecap="round" stroke-linejoin="round"/>
<path d="M239.676 452.697C239.676 452.697 219.65 448.459 205.1 458.409" stroke="black" stroke-miterlimit="10" stroke-linecap="round" stroke-linejoin="round"/>
<path d="M225.057 441.029C225.057 441.029 202.831 440.008 192.281 458.421" stroke="black" stroke-miterlimit="10" stroke-linecap="round" stroke-linejoin="round"/>
<path d="M269.468 511.481C272.959 519.174 276.474 526.663 279.746 533.188C294.436 562.506 338.803 624.21 338.968 632.036C339.134 639.863 357.445 695.345 354.126 698.589C350.807 701.832 342.669 707.296 340.141 707.772C337.612 708.249 326.466 711.658 322.673 712.373C318.878 713.088 304.849 715.076 301.367 710.493C297.885 705.91 297.922 702.63 301.953 703.179C305.986 703.729 312.427 703.17 312.427 703.17L314.002 697.633C314.002 697.633 306.671 676.096 306.734 659.059C306.797 642.023 306.989 636.092 306.989 636.092C306.989 636.092 257.391 581.57 224.391 540.305C237.055 520.952 256.307 513.966 269.468 511.481Z" fill="white" stroke="black" stroke-miterlimit="10" stroke-linecap="round" stroke-linejoin="round"/>
<path d="M327.668 699.303C327.668 699.303 322.399 705.79 320.544 707.887C318.693 709.984 318.286 711.809 314.277 713.063" fill="white"/>
<path d="M327.668 699.303C327.668 699.303 322.399 705.79 320.544 707.887C318.693 709.984 318.286 711.809 314.277 713.063" stroke="black" stroke-miterlimit="10" stroke-linecap="round" stroke-linejoin="round"/>
<path d="M340.557 700.122C340.557 700.122 332.47 708.888 326.955 711.426Z" fill="white"/>
<path d="M340.557 700.122C340.557 700.122 332.47 708.888 326.955 711.426" stroke="black" stroke-miterlimit="10" stroke-linecap="round" stroke-linejoin="round"/>
<path d="M350.654 696.721C350.654 696.721 347.405 703.326 342.99 706.404Z" fill="white"/>
<path d="M350.654 696.721C350.654 696.721 347.405 703.326 342.99 706.404" stroke="black" stroke-miterlimit="10" stroke-linecap="round" stroke-linejoin="round"/>
<path d="M413.424 569.777C413.424 569.777 414.328 587.19 413.929 590.118C413.53 593.045 415.858 597.833 416.928 608.562C417.999 619.291 417.32 630.825 423.86 627.692C430.398 624.558 430.239 606.054 428.915 601.55C427.591 597.046 433.258 581.722 433.258 581.722" fill="white"/>
<path d="M413.424 569.777C413.424 569.777 414.328 587.19 413.929 590.118C413.53 593.045 415.858 597.833 416.928 608.562C417.999 619.291 417.32 630.825 423.86 627.692C430.398 624.558 430.239 606.054 428.915 601.55C427.591 597.046 433.258 581.722 433.258 581.722" stroke="black" stroke-miterlimit="10" stroke-linecap="round" stroke-linejoin="round"/>
<path d="M79.2158 561.931C79.2158 561.931 44.2291 659.776 57.2756 712.556C70.3221 765.333 82.1813 829.378 82.1813 829.378H261.861C261.861 829.378 282.024 764.148 279.652 725.009C277.28 685.869 272.536 641.989 272.536 641.989L263.049 529.316H83.9596L79.2158 561.931Z" fill="black" stroke="black" stroke-miterlimit="10" stroke-linecap="round" stroke-linejoin="round"/>
<path d="M164.014 658.592C164.014 658.592 193.663 721.45 206.71 770.67C219.756 819.891 219.162 828.785 219.162 828.785" stroke="#858585" stroke-miterlimit="10" stroke-linecap="round" stroke-linejoin="round"/>
<path d="M197.223 711.368C197.223 711.368 228.653 684.09 238.14 651.476" stroke="#858585" stroke-miterlimit="10" stroke-linecap="round" stroke-linejoin="round"/>
<path d="M183.582 265.429L99.375 293.3C99.375 293.3 129.618 341.333 139.699 410.122C149.78 478.911 145.63 548.884 145.63 548.884C145.63 548.884 167.57 561.931 209.082 557.187C250.593 552.444 263.046 529.316 263.046 529.316C263.046 529.316 260.08 414.272 244.662 368.611C229.244 322.949 183.582 265.429 183.582 265.429Z" fill="white" stroke="black" stroke-miterlimit="10" stroke-linecap="round" stroke-linejoin="round"/>
<path d="M58.2903 61.1147C58.2903 61.1147 37.9785 59.5113 29.426 82.4974C20.8735 105.483 -3.18053 185.663 1.62973 203.303C6.43999 220.944 17.1313 226.825 21.4089 246.066C25.6838 265.309 16.0633 277.069 16.0633 277.069C16.0633 277.069 23.5477 287.76 41.7208 288.296C59.8938 288.831 87.1574 274.397 105.33 270.12C123.503 265.842 163.595 262.103 188.719 258.36C213.844 254.618 219.187 235.91 219.187 235.91C219.187 235.91 202.082 237.513 201.014 226.822C199.946 216.131 213.844 176.039 207.963 148.243C202.082 120.447 161.991 92.6505 144.354 78.7524C126.713 64.8542 110.144 53.6303 91.4324 53.0949C72.7212 52.5595 61.4972 54.1656 58.2903 61.1147Z" fill="black" stroke="black" stroke-miterlimit="10" stroke-linecap="round" stroke-linejoin="round"/>
<path d="M49.2039 161.608C49.2039 161.608 33.1669 189.405 35.3058 213.994C37.4446 238.584 56.1529 240.187 59.8952 236.98" stroke="#858585" stroke-miterlimit="10" stroke-linecap="round" stroke-linejoin="round"/>
<path d="M151.836 120.982C151.836 120.982 190.324 156.796 196.202 194.751" stroke="#858585" stroke-miterlimit="10" stroke-linecap="round" stroke-linejoin="round"/>
<path d="M94.4453 222.943L112.438 272.261C112.438 272.261 150.16 316.161 166.494 309.966C182.828 303.772 167.057 259.841 166.494 253.647C165.931 247.452 160.862 217.037 160.862 217.037C160.862 217.037 149.597 235.06 142.276 235.06C134.955 235.058 94.4453 222.943 94.4453 222.943Z" fill="white" stroke="black" stroke-miterlimit="10" stroke-linecap="round" stroke-linejoin="round"/>
<path d="M80.3539 93.3193C80.3539 93.3193 50.9375 147.062 50.9375 154.416C50.9375 161.77 73.5657 207.026 79.7879 216.078C86.0102 225.13 129.003 244.928 138.621 245.494C148.238 246.06 157.853 235.311 160.117 226.825C162.381 218.339 171.974 195.125 171.338 182.206C171.102 177.38 153.667 123.132 148.577 120.306C143.486 117.476 80.3539 93.3193 80.3539 93.3193Z" fill="white" stroke="black" stroke-miterlimit="10" stroke-linecap="round" stroke-linejoin="round"/>
<path d="M99.5936 168.453C99.5936 168.453 88.8135 163.992 82.4941 173.657" stroke="black" stroke-miterlimit="10" stroke-linecap="round" stroke-linejoin="round"/>
<path d="M128.217 158.041C128.217 158.041 130.447 146.518 143.829 149.863" stroke="black" stroke-miterlimit="10" stroke-linecap="round" stroke-linejoin="round"/>
<path d="M92.9013 153.208C92.9013 153.208 75.8018 152.093 70.5977 163.989" stroke="black" stroke-miterlimit="10" stroke-linecap="round" stroke-linejoin="round"/>
<path d="M115.949 142.429C115.949 142.429 125.242 129.791 138.253 134.251" stroke="black" stroke-miterlimit="10" stroke-linecap="round" stroke-linejoin="round"/>
<path d="M131.562 182.578C131.562 182.578 125.987 190.756 117.809 188.526" stroke="black" stroke-miterlimit="10" stroke-linecap="round" stroke-linejoin="round"/>
<path d="M147.548 187.782C147.548 187.782 136.768 203.767 107.027 205.997C107.027 205.997 126.729 220.123 138.255 216.405C149.779 212.688 147.548 187.782 147.548 187.782Z" fill="white" stroke="black" stroke-miterlimit="10" stroke-linecap="round" stroke-linejoin="round"/>
<path d="M61.6748 182.95C61.6748 182.95 52.0099 178.489 50.523 190.385C49.0361 202.28 73.9446 206.369 73.9446 206.369L61.6748 182.95Z" fill="white" stroke="black" stroke-miterlimit="10" stroke-linecap="round" stroke-linejoin="round"/>
<path d="M157.889 140.09C157.889 140.09 157.991 135.244 162.727 136.456C167.465 137.669 175.407 151.894 174.572 160.405C173.737 168.913 168.114 169.11 168.114 169.11L157.889 140.09Z" fill="white" stroke="black" stroke-miterlimit="10" stroke-linecap="round" stroke-linejoin="round"/>
<path d="M82.5761 271.668C82.5761 271.668 16.6805 315.598 13.8648 323.482C11.0491 331.366 58.9215 565.097 58.9215 565.097C58.9215 565.097 -4.72153 708.15 11.0491 732.931C26.8198 757.712 98.344 781.367 101.726 785.872C105.107 790.377 133.827 667.036 146.219 620.29C158.611 573.544 178.884 489.065 180.01 449.076C181.137 409.088 164.803 356.147 159.171 338.69C153.54 321.23 143.401 290.818 143.401 290.818L82.5761 271.668Z" fill="url(#paint0_linear_152_4590)" stroke="black" stroke-miterlimit="10" stroke-linecap="round" stroke-linejoin="round"/>
<path d="M99.2962 243.818C99.2962 243.818 145.654 288.562 143.401 290.814C141.149 293.067 114.678 332.492 114.678 332.492L74.127 273.357L99.2962 243.818Z" fill="url(#paint1_linear_152_4590)" stroke="black" stroke-miterlimit="10" stroke-linecap="round" stroke-linejoin="round"/>
<path d="M174.378 288.562C174.378 288.562 214.929 338.124 231.823 373.605C248.72 409.085 256.604 472.165 256.604 496.946C256.604 521.727 256.604 543.692 256.604 543.692C256.604 543.692 274.064 661.965 279.696 681.678C285.327 701.39 294.34 737.997 294.34 737.997C294.34 737.997 301.098 735.744 300.535 710.964C299.971 686.183 290.961 585.37 283.074 545.381C275.19 505.393 271.914 439.092 266.843 427.266C261.775 415.441 261.775 415.441 261.775 415.441L321.948 397.972C321.948 397.972 284.423 363.992 272.225 311.956C266.677 288.282 254.349 275.613 247.028 270.545C239.707 265.476 186.204 259.845 177.191 260.408C168.183 260.966 174.378 288.562 174.378 288.562Z" fill="url(#paint2_linear_152_4590)" stroke="black" stroke-miterlimit="10" stroke-linecap="round" stroke-linejoin="round"/>
<path d="M174.378 288.561C174.378 288.561 176.068 281.241 179.446 282.367C182.825 283.493 211.548 299.827 214.364 298.137C217.179 296.448 185.078 257.586 178.883 251.955C172.689 246.323 166.494 242.944 166.494 242.944V253.644L174.378 288.561Z" fill="url(#paint3_linear_152_4590)" stroke="black" stroke-miterlimit="10" stroke-linecap="round" stroke-linejoin="round"/>
<path d="M229.01 289.125C229.01 289.125 248.722 352.768 250.975 380.365Z" fill="white"/>
<path d="M229.01 289.125C229.01 289.125 248.722 352.768 250.975 380.365" stroke="black" stroke-miterlimit="10" stroke-linecap="round" stroke-linejoin="round"/>
<path d="M240.248 416.483C240.248 416.483 251.713 370.624 254.465 367.872C257.217 365.12 279.687 355.489 281.524 355.031C283.357 354.573 298.032 365.12 300.326 367.415C302.62 369.709 312.71 376.128 310.873 379.798C309.04 383.468 303.078 380.716 299.866 380.716C296.653 380.716 281.521 390.348 280.605 391.721C279.687 393.097 274.644 404.562 272.81 407.772C270.974 410.979 240.248 416.483 240.248 416.483Z" fill="white" stroke="black" stroke-miterlimit="10" stroke-linecap="round" stroke-linejoin="round"/>
<path d="M304.51 371.129C304.51 371.129 298.476 368.715 296.664 369.62C294.856 370.524 273.434 380.48 272.227 381.989C271.021 383.499 269.512 385.912 269.512 385.912" stroke="black" stroke-miterlimit="10" stroke-linecap="round" stroke-linejoin="round"/>
<path d="M263.783 378.972C263.783 378.972 267.403 374.145 271.024 372.034C274.644 369.923 287.316 365.096 288.822 364.491C290.331 363.889 296.062 364.491 296.062 364.491" stroke="black" stroke-miterlimit="10" stroke-linecap="round" stroke-linejoin="round"/>
<path d="M286.711 359.062C286.711 359.062 262.577 367.811 261.068 369.922C259.559 372.033 259.559 372.033 259.559 372.033" stroke="black" stroke-miterlimit="10" stroke-linecap="round" stroke-linejoin="round"/>
<path d="M263.365 409.087C263.365 409.087 286.457 392.753 296.593 388.248C306.73 383.743 327.569 392.19 331.511 397.259C335.453 402.327 340.521 426.544 339.958 444.568C339.394 462.591 338.831 470.475 326.442 474.417C314.053 478.359 297.156 480.611 295.467 481.175C293.777 481.738 292.088 447.383 281.386 428.797C270.686 410.213 263.365 409.087 263.365 409.087Z" fill="url(#paint4_linear_152_4590)" stroke="black" stroke-miterlimit="10" stroke-linecap="round" stroke-linejoin="round"/>
<path d="M234.078 420.353C234.078 420.353 239.709 484.559 244.215 492.443C248.72 500.327 259.985 498.637 271.811 495.822C283.637 493.006 301.097 489.064 301.66 485.122C302.223 481.18 301.66 443.444 295.466 427.676C289.271 411.906 278.569 400.643 270.122 402.895C261.675 405.145 234.078 410.777 234.078 420.353Z" fill="url(#paint5_linear_152_4590)" stroke="black" stroke-miterlimit="10" stroke-linecap="round" stroke-linejoin="round"/>
<path d="M182.006 526.088L250.795 466.927L221.903 447.667L166.871 471.973C166.871 471.973 181.546 510.955 182.006 526.088Z" fill="white" stroke="black" stroke-miterlimit="10" stroke-linecap="round" stroke-linejoin="round"/>
<path d="M148.53 558.646C148.53 558.646 155.867 558.646 165.957 550.39C176.046 542.134 185.217 536.63 182.465 513.242C179.713 489.854 168.248 454.082 162.747 449.496C157.243 444.911 121.932 450.415 121.014 452.706C120.095 454.998 148.987 496.731 151.282 521.037C153.573 545.347 148.53 558.646 148.53 558.646Z" fill="url(#paint6_linear_152_4590)" stroke="black" stroke-miterlimit="10" stroke-linecap="round" stroke-linejoin="round"/>
<path d="M27.4574 324.763C27.4574 324.763 22.2865 314.862 13.8671 323.482C5.44502 332.101 0.859481 356.407 6.82099 385.757C12.7825 415.107 29.2911 538.01 35.7131 553.145C42.1323 568.278 48.0965 582.495 59.559 582.953C71.0243 583.41 108.63 578.367 134.31 568.278C159.992 558.188 158.616 527.92 149.903 501.78C141.189 475.64 125.138 454.085 115.507 447.666C105.875 441.244 100.832 432.991 90.7425 414.188C80.6532 395.386 57.7226 347.691 51.3034 340.814" fill="url(#paint7_linear_152_4590)"/>
<path d="M27.4574 324.763C27.4574 324.763 22.2865 314.862 13.8671 323.482C5.44502 332.101 0.859481 356.407 6.82099 385.757C12.7825 415.107 29.2911 538.01 35.7131 553.145C42.1323 568.278 48.0965 582.495 59.559 582.953C71.0243 583.41 108.63 578.367 134.31 568.278C159.992 558.188 158.616 527.92 149.903 501.78C141.189 475.64 125.138 454.085 115.507 447.666C105.875 441.244 100.832 432.991 90.7425 414.188C80.6532 395.386 57.7226 347.691 51.3034 340.814" stroke="black" stroke-miterlimit="10" stroke-linecap="round" stroke-linejoin="round"/>
<path d="M72.2546 496.052C69.9494 498.163 67.5581 500.069 65.1113 501.669" stroke="black" stroke-miterlimit="10" stroke-linecap="round" stroke-linejoin="round"/>
<path d="M100.507 456.482C100.507 456.482 91.2745 475.388 78.1836 490.021" stroke="black" stroke-miterlimit="10" stroke-linecap="round" stroke-linejoin="round"/>
<path d="M246.668 427.488C246.668 427.488 179.255 433.908 161.828 433.45C144.401 432.992 119.637 423.818 119.637 423.818C119.637 423.818 89.8269 411.435 83.4077 408.225C76.9885 405.016 61.8531 405.016 57.7252 406.849C53.5974 408.683 44.4263 416.02 45.8022 420.609C47.1782 425.194 52.6819 421.985 55.4338 419.69C58.1857 417.399 62.7713 415.563 62.7713 415.563L77.4461 418.772L80.198 422.442C80.198 422.442 60.0194 426.112 57.2675 427.488C54.5156 428.864 46.7204 446.291 45.3445 449.959C43.9685 453.626 45.3445 453.168 48.0964 453.168C50.8483 453.168 50.8483 453.168 50.8483 453.168C50.8483 453.168 49.4723 460.506 52.2242 461.424C54.9761 462.342 58.6434 460.506 58.6434 460.506C58.6434 460.506 61.853 463.715 63.229 463.715C64.6049 463.715 78.8221 455.92 81.1135 454.544C83.4077 453.168 103.126 457.296 108.172 457.296C113.218 457.296 132.478 456.838 132.478 456.838C132.478 456.838 225.116 483.436 237.497 485.273C249.88 487.106 258.133 486.649 262.719 472.889C267.304 459.132 257.215 429.325 246.668 427.488Z" fill="white" stroke="black" stroke-miterlimit="10" stroke-linecap="round" stroke-linejoin="round"/>
<path d="M58.6445 460.509C58.6445 460.509 71.028 446.75 74.2377 444.916C77.4473 443.082 83.8692 440.788 83.8692 440.788" stroke="black" stroke-miterlimit="10" stroke-linecap="round" stroke-linejoin="round"/>
<path d="M50.8457 453.171L63.6869 438.035L77.4464 432.534" stroke="black" stroke-miterlimit="10" stroke-linecap="round" stroke-linejoin="round"/>
<defs>
<linearGradient id="paint0_linear_152_4590" x1="94.3014" y1="271.668" x2="94.3014" y2="785.992" gradientUnits="userSpaceOnUse">
<stop stop-color="#030DF3"/>
<stop offset="1" stop-color="#0108AA"/>
</linearGradient>
<linearGradient id="paint1_linear_152_4590" x1="108.804" y1="243.818" x2="108.804" y2="332.492" gradientUnits="userSpaceOnUse">
<stop stop-color="#030DF3"/>
<stop offset="1" stop-color="#0108AA"/>
</linearGradient>
<linearGradient id="paint2_linear_152_4590" x1="247.124" y1="260.369" x2="247.124" y2="737.997" gradientUnits="userSpaceOnUse">
<stop stop-color="#030DF3"/>
<stop offset="1" stop-color="#0108AA"/>
</linearGradient>
<linearGradient id="paint3_linear_152_4590" x1="190.516" y1="242.944" x2="190.516" y2="298.26" gradientUnits="userSpaceOnUse">
<stop stop-color="#030DF3"/>
<stop offset="1" stop-color="#0108AA"/>
</linearGradient>
<linearGradient id="paint4_linear_152_4590" x1="301.683" y1="386.969" x2="301.683" y2="481.181" gradientUnits="userSpaceOnUse">
<stop stop-color="#030DF3"/>
<stop offset="1" stop-color="#0108AA"/>
</linearGradient>
<linearGradient id="paint5_linear_152_4590" x1="267.953" y1="402.608" x2="267.953" y2="498.17" gradientUnits="userSpaceOnUse">
<stop stop-color="#030DF3"/>
<stop offset="1" stop-color="#0108AA"/>
</linearGradient>
<linearGradient id="paint6_linear_152_4590" x1="151.976" y1="447.726" x2="151.976" y2="558.646" gradientUnits="userSpaceOnUse">
<stop stop-color="#030DF3"/>
<stop offset="1" stop-color="#0108AA"/>
</linearGradient>
<linearGradient id="paint7_linear_152_4590" x1="79.8483" y1="319.957" x2="79.8483" y2="582.981" gradientUnits="userSpaceOnUse">
<stop stop-color="#030DF3"/>
<stop offset="1" stop-color="#0108AA"/>
</linearGradient>
</defs>
</svg>
