<svg width="40" height="40" viewBox="0 0 40 40" fill="none" xmlns="http://www.w3.org/2000/svg">
<path fill-rule="evenodd" clip-rule="evenodd" d="M8.8886 3.37061C12.1776 1.17298 16.0444 0 20 0C22.6264 0 25.2272 0.517315 27.6537 1.52241C30.0802 2.5275 32.285 4.00069 34.1421 5.85786C35.9993 7.71503 37.4725 9.91982 38.4776 12.3463C39.4827 14.7728 40 17.3736 40 20C40 23.9556 38.827 27.8224 36.6294 31.1114C34.4318 34.4004 31.3082 36.9638 27.6537 38.4776C23.9991 39.9913 19.9778 40.3874 16.0982 39.6157C12.2186 38.844 8.65492 36.9392 5.85787 34.1421C3.06082 31.3451 1.15601 27.7814 0.384303 23.9018C-0.387401 20.0222 0.00866568 16.0008 1.52242 12.3463C3.03617 8.69181 5.59962 5.56823 8.8886 3.37061ZM22 17.9989H28C28.5305 17.9989 29.0392 18.2096 29.4142 18.5847C29.7893 18.9598 30 19.4685 30 19.9989C30 20.5293 29.7893 21.038 29.4142 21.4131C29.0392 21.7882 28.5305 21.9989 28 21.9989H20C19.4696 21.9989 18.9609 21.7882 18.5858 21.4131C18.2107 21.038 18 20.5293 18 19.9989V11.9989C18 11.4685 18.2107 10.9598 18.5858 10.5847C18.9609 10.2096 19.4696 9.99891 20 9.99891C20.5305 9.99891 21.0392 10.2096 21.4142 10.5847C21.7893 10.9598 22 11.4685 22 11.9989V17.9989Z" fill="#0109D3"/>
</svg>
