<svg width="412" height="538" viewBox="0 0 412 538" fill="none" xmlns="http://www.w3.org/2000/svg">
<path d="M299.922 165.96H411.398L385.434 261.607H273.957L299.922 165.96Z" fill="#ECBF2C" stroke="black" stroke-miterlimit="10" stroke-linecap="round" stroke-linejoin="round"/>
<path d="M303.106 169.523H406.275L382.245 258.042H279.076L303.106 169.523Z" fill="white" stroke="black" stroke-miterlimit="10" stroke-linecap="round" stroke-linejoin="round"/>
<path d="M328.098 230.436L334.297 207.278H336.878L331.308 228.087H337.925L337.295 230.436H328.098Z" fill="black"/>
<path d="M343.758 212.868C344.705 209.329 347.068 207.046 350.61 207.046C354.182 207.046 355.324 209.329 354.376 212.868L351.17 224.844C350.231 228.351 347.857 230.666 344.286 230.666C340.744 230.666 339.613 228.351 340.552 224.844L343.758 212.868ZM343.061 224.977C342.495 227.094 343.061 228.319 344.914 228.319C346.8 228.319 347.987 227.094 348.554 224.977L351.83 212.737C352.387 210.654 351.865 209.395 349.98 209.395C348.128 209.395 346.897 210.654 346.338 212.737L343.061 224.977Z" fill="black"/>
<path d="M367.055 212.868L366.524 214.854H364.075L364.642 212.737C365.199 210.654 364.709 209.395 362.824 209.395C360.973 209.395 359.776 210.654 359.217 212.737L355.941 224.977C355.383 227.062 355.909 228.319 357.758 228.319C359.643 228.319 360.807 227.062 361.366 224.977L362.606 220.345H360.225L360.845 218.029H365.674L363.851 224.844C362.911 228.351 360.639 230.666 357.066 230.666C353.527 230.666 352.493 228.351 353.431 224.844L356.637 212.868C357.576 209.363 359.849 207.046 363.389 207.046C366.96 207.046 367.994 209.363 367.055 212.868Z" fill="black"/>
<path d="M369.313 212.868C370.26 209.329 372.622 207.046 376.164 207.046C379.737 207.046 380.879 209.329 379.931 212.868L376.725 224.844C375.786 228.351 373.412 230.666 369.841 230.666C366.299 230.666 365.167 228.351 366.107 224.844L369.313 212.868ZM368.616 224.977C368.049 227.094 368.616 228.319 370.469 228.319C372.355 228.319 373.542 227.094 374.108 224.977L377.385 212.737C377.942 210.654 377.42 209.395 375.535 209.395C373.682 209.395 372.451 210.654 371.892 212.737L368.616 224.977Z" fill="black"/>
<path d="M330.901 208.538C330.699 203.279 329.485 193.564 323.718 186.051C315.395 175.207 300.308 189.952 306.668 208.41C307.551 210.974 308.876 213.183 310.263 214.994" stroke="black" stroke-miterlimit="10" stroke-linecap="round" stroke-linejoin="round"/>
<path d="M316.264 220.806C316.264 220.806 294.252 224.148 298.885 232.23C306.916 246.244 320.245 233.377 325.879 226.817" stroke="black" stroke-miterlimit="10" stroke-linecap="round" stroke-linejoin="round"/>
<path d="M326.247 201.512C328.722 208.159 328.198 214.488 325.077 215.649C321.957 216.81 317.422 212.364 314.95 205.717C312.475 199.07 312.999 192.74 316.12 191.58C319.238 190.419 323.773 194.865 326.247 201.512Z" fill="url(#paint0_linear_152_4276)" stroke="black" stroke-miterlimit="10" stroke-linecap="round" stroke-linejoin="round"/>
<path d="M304.076 232.609C304.845 234.639 308.76 235.036 312.82 233.496C316.879 231.957 319.546 229.062 318.776 227.032C318.007 225.003 314.092 224.605 310.032 226.145C305.973 227.685 303.306 230.579 304.076 232.609Z" fill="url(#paint1_linear_152_4276)" stroke="black" stroke-miterlimit="10" stroke-linecap="round" stroke-linejoin="round"/>
<path d="M337.525 189.822C337.525 189.822 341.959 201.064 333.94 211.008C333.94 211.008 335.298 203.657 332.045 194.146" stroke="black" stroke-miterlimit="10" stroke-linecap="round" stroke-linejoin="round"/>
<path d="M385.432 256.524H229.152V261.607H385.432V256.524Z" fill="#ECBF2C" stroke="black" stroke-miterlimit="10" stroke-linecap="round" stroke-linejoin="round"/>
<path d="M385.434 256.524H313.619V261.607H385.434V256.524Z" fill="#ECBF2C" stroke="black" stroke-miterlimit="10" stroke-linecap="round" stroke-linejoin="round"/>
<path d="M190.238 351.322C190.238 351.322 200.719 358.578 216.26 403.411C221.431 418.33 250.456 498.704 251.983 504.303C253.51 509.904 256.565 516.522 261.147 516.522C265.729 516.522 282.53 495.139 280.494 492.593C278.458 490.046 268.784 479.865 268.784 479.865C268.784 479.865 263.009 414.797 261.99 396.469C260.971 378.141 265.135 356.061 255.461 341.298C245.788 326.533 203.022 341.807 203.022 341.807L190.238 351.322Z" fill="white" stroke="black" stroke-miterlimit="10" stroke-linecap="round" stroke-linejoin="round"/>
<path d="M273.365 479.865C273.365 479.865 269.291 481.901 269.801 486.483C270.31 491.065 274.892 497.175 274.892 497.175C274.892 497.175 265.219 504.811 260.127 505.32C255.036 505.829 249.436 506.847 249.436 508.375C249.436 509.902 253.509 512.448 256.054 518.047C258.6 523.648 264.199 532.302 265.726 534.34C267.254 536.376 268.272 537.903 273.872 536.376C279.472 534.848 291.691 523.648 298.309 519.066C304.927 514.484 324.783 511.429 328.348 508.883C331.911 506.337 343.112 490.047 338.02 486.992C332.93 483.937 331.402 487.5 325.293 489.028C319.183 490.555 301.364 488.519 291.691 486.482C282.018 484.446 278.964 483.936 278.964 483.936L273.365 479.865Z" fill="url(#paint2_linear_152_4276)" stroke="black" stroke-miterlimit="10" stroke-linecap="round" stroke-linejoin="round"/>
<path d="M264.906 533.178C265.241 533.667 265.523 534.067 265.728 534.341C267.255 536.377 268.274 537.904 273.873 536.377C279.474 534.849 291.693 523.649 298.311 519.067C304.929 514.485 324.784 511.431 328.349 508.884C331.913 506.338 343.114 490.048 338.022 486.993C337.162 486.477 336.411 486.164 335.714 485.983C335.804 486.321 335.894 486.631 335.984 486.993C337.512 493.102 332.421 499.212 327.839 503.794C323.257 508.376 307.984 507.357 291.183 516.013C279.448 522.058 269.717 529.333 264.906 533.178Z" fill="white" stroke="black" stroke-miterlimit="10" stroke-linecap="round" stroke-linejoin="round"/>
<path d="M264.423 428.919C263.325 415.536 262.354 403.018 261.99 396.469C260.971 378.141 265.135 356.061 255.461 341.298C245.788 326.533 203.022 341.807 203.022 341.807L190.238 351.322C190.238 351.322 200.719 358.578 216.26 403.411C218.238 409.117 223.704 424.397 229.787 441.405L264.423 428.919Z" fill="black" stroke="black" stroke-miterlimit="10" stroke-linecap="round" stroke-linejoin="round"/>
<path d="M239.493 90.166C239.493 90.166 241.803 96.1716 241.341 101.253C240.878 106.335 236.26 108.644 235.799 107.259C235.336 105.873 235.336 102.177 235.336 100.329C235.336 98.4809 235.336 98.4809 235.336 98.4809C235.336 98.4809 234.412 100.329 231.178 103.562C227.945 106.796 226.097 105.872 224.712 105.872C223.326 105.872 222.863 101.252 225.173 98.0181C227.484 94.7863 234.874 87.3954 239.493 90.166Z" fill="white" stroke="black" stroke-miterlimit="10" stroke-linecap="round" stroke-linejoin="round"/>
<path d="M250.119 102.177C245.5 99.4048 238.57 109.107 227.946 106.796C226.592 106.501 226.098 104.486 228.408 99.866C230.717 95.2473 238.108 91.5512 241.804 88.779C245.499 86.0069 248.271 83.6975 248.271 80.4641C248.271 77.2307 239.956 82.3122 237.646 84.1603C236.591 85.0049 232.832 86.9111 228.931 88.8203C228.365 88.8401 227.696 88.8707 226.946 88.9165C222.827 89.1731 216.497 89.9062 214.089 92.014C210.95 94.7601 209.148 104.15 208.392 107.772C206.35 110.73 204.515 113.459 203.463 115.111C200.229 120.192 135.096 167.772 135.096 167.772L139.714 208.422L213.624 124.349C213.624 124.349 215.472 122.501 220.554 120.653C225.635 118.805 232.565 117.42 238.569 114.186C244.574 110.953 245.036 110.49 251.503 106.333C254.637 104.32 252.624 103.68 250.119 102.177Z" fill="white" stroke="black" stroke-miterlimit="10" stroke-linecap="round" stroke-linejoin="round"/>
<path d="M172.433 140.06C154.345 153.711 135.096 167.772 135.096 167.772L139.714 208.422L185.11 156.784L172.433 140.06Z" fill="url(#paint3_linear_152_4276)" stroke="black" stroke-miterlimit="10" stroke-linecap="round" stroke-linejoin="round"/>
<path d="M149.714 293.749C149.714 293.749 182.297 292.221 229.645 299.858C276.993 307.495 294.71 315.623 293.285 324.804C287.515 361.981 200.711 484.365 200.711 484.365L202.238 501.674C202.238 501.674 199.184 505.748 188.492 506.256C177.801 506.765 164.563 491.491 164.563 491.491C164.563 491.491 176.513 479.132 181.095 464.369C185.677 449.604 222.517 354.333 222.517 354.333C222.517 354.333 174.152 365.024 120.695 355.351C67.2374 345.679 149.714 293.749 149.714 293.749Z" fill="white" stroke="black" stroke-miterlimit="10" stroke-linecap="round" stroke-linejoin="round"/>
<path d="M229.645 299.858C182.297 292.221 149.714 293.749 149.714 293.749C149.714 293.749 67.2374 345.679 120.695 355.351C174.152 365.024 222.518 354.333 222.518 354.333C222.518 354.333 207.188 393.979 195.076 426.086L230.983 439.896C256.629 400.996 289.793 347.302 293.285 324.804C294.71 315.623 276.993 307.495 229.645 299.858Z" fill="black" stroke="black" stroke-miterlimit="10" stroke-linecap="round" stroke-linejoin="round"/>
<path d="M200.71 484.364C200.71 484.364 197.655 485.383 196.128 488.946C194.6 492.51 193.582 496.074 193.582 496.074C193.582 496.074 183.909 494.039 177.289 490.984C170.671 487.929 166.089 484.874 166.089 484.874C166.089 484.874 161.507 485.383 161.507 488.438C161.507 491.492 160.999 497.093 158.961 502.184C157.651 505.462 154.862 512.748 153.041 517.525C152.137 519.896 153.542 522.508 156.021 523.057C164.079 524.839 181.077 528.767 195.618 533.241C215.473 539.35 237.365 536.296 239.911 535.787C242.457 535.278 252.638 529.169 248.056 525.096C243.474 521.022 216.49 510.331 210.891 503.204C205.292 496.073 200.71 484.364 200.71 484.364Z" fill="url(#paint4_linear_152_4276)" stroke="black" stroke-miterlimit="10" stroke-linecap="round" stroke-linejoin="round"/>
<path d="M246.017 523.663C245.985 528.721 243.422 533.748 235.329 533.748C227.184 533.748 212.927 532.729 192.563 524.584C176.48 518.151 160.723 514.26 154.806 512.907C154.176 514.551 153.569 516.142 153.043 517.523C152.139 519.895 153.544 522.507 156.023 523.055C164.081 524.837 181.079 528.766 195.62 533.239C215.475 539.349 237.367 536.294 239.913 535.785C242.459 535.277 252.64 529.167 248.058 525.094C247.594 524.682 246.893 524.199 246.017 523.663Z" fill="white" stroke="black" stroke-miterlimit="10" stroke-linecap="round" stroke-linejoin="round"/>
<path d="M46.8646 175.162C46.8646 175.162 41.3219 219.046 41.7831 227.361C42.2444 235.676 48.2499 307.277 49.6352 322.982C51.0205 338.688 57.4888 352.546 69.0371 355.318C80.5854 358.09 110.612 362.247 123.545 359.012C136.48 355.779 150.338 326.677 154.957 315.59C159.575 304.503 162.81 297.575 161.423 295.265C160.038 292.956 154.033 287.875 154.033 287.875C154.033 287.875 142.484 203.802 139.712 182.091C136.94 160.379 138.327 158.531 128.164 150.216C118.004 141.903 65.3425 134.973 46.8646 175.162Z" fill="url(#paint5_linear_152_4276)" stroke="black" stroke-miterlimit="10" stroke-linecap="round" stroke-linejoin="round"/>
<path d="M120.785 328.331C119.113 329.605 117.384 330.811 115.602 331.931" stroke="black" stroke-miterlimit="10" stroke-linecap="round" stroke-linejoin="round"/>
<path d="M151.24 291.202C151.24 291.202 141.435 310.45 125.197 324.715" stroke="black" stroke-miterlimit="10" stroke-linecap="round" stroke-linejoin="round"/>
<path d="M144.113 292.222C144.113 292.222 128.33 306.987 112.547 316.151" stroke="black" stroke-miterlimit="10" stroke-linecap="round" stroke-linejoin="round"/>
<path d="M156.805 37.0428C156.805 37.0428 161.424 46.743 162.811 53.6725C164.196 60.6021 164.659 67.0689 167.892 68.4542C171.126 69.8395 177.131 70.3023 176.207 73.997C175.283 77.6932 169.278 83.6972 169.278 83.6972C169.278 83.6972 170.663 105.87 170.202 110.027C169.739 114.185 145.257 114.185 143.872 114.185C142.486 114.185 128.627 146.983 128.627 146.983L89.825 127.581L97.2158 103.56C97.2158 103.56 85.2048 80.4638 84.2823 70.3008C83.3582 60.1378 106.918 41.6615 120.314 37.504C133.709 33.3481 156.805 37.0428 156.805 37.0428Z" fill="white" stroke="black" stroke-miterlimit="10" stroke-linecap="round" stroke-linejoin="round"/>
<path d="M143.872 114.186L131.551 110.664L136.157 128.704L143.872 114.186Z" fill="black" stroke="black" stroke-miterlimit="10" stroke-linecap="round" stroke-linejoin="round"/>
<path d="M161.374 63.1742C161.997 65.7799 161.698 68.0831 160.707 68.3214C159.714 68.5596 158.403 66.6398 157.78 64.0341C157.157 61.4285 157.456 59.1237 158.448 58.8869C159.441 58.6502 160.751 60.5686 161.374 63.1742Z" fill="black"/>
<path d="M153.574 87.8564C153.574 87.8564 159.117 92.0139 164.198 90.1658" stroke="black" stroke-miterlimit="10" stroke-linecap="round" stroke-linejoin="round"/>
<path d="M154.497 28.2667C154.497 28.2667 160.964 39.815 156.346 47.2059C151.727 54.5967 140.64 57.8301 134.634 64.7597C128.629 71.6892 125.395 83.6988 123.086 84.6228C120.777 85.5469 113.847 71.6892 109.69 72.6133C105.532 73.5373 98.6026 83.2375 104.608 93.4005C110.614 103.563 121.238 102.177 121.238 102.177C121.238 102.177 104.608 110.953 101.375 110.953C98.1414 110.953 88.4412 105.41 83.821 100.329C79.2007 95.2471 62.5725 80.0026 61.6485 67.5303C60.7244 55.0579 77.3542 39.3522 77.3542 39.3522C77.3542 39.3522 57.491 37.9669 62.5725 30.5745C67.654 23.1837 85.669 18.5635 85.669 18.5635C85.669 18.5635 82.4357 7.01521 87.0544 4.70586C91.6731 2.39651 119.851 11.6354 119.851 11.6354C119.851 11.6354 111.997 1.47246 123.085 1.0112C134.172 0.549945 153.111 14.4076 154.497 28.2667Z" fill="black" stroke="black" stroke-miterlimit="10" stroke-linecap="round" stroke-linejoin="round"/>
<path d="M117.736 78.4233L176.671 54.5967" stroke="black" stroke-miterlimit="10" stroke-linecap="round" stroke-linejoin="round"/>
<path d="M161.307 51.2566C162.55 50.7312 163.917 50.4395 165.353 50.4395C171.092 50.4395 175.746 55.0933 175.746 60.833C175.746 64.7263 173.606 68.1185 170.439 69.8994" stroke="black" stroke-miterlimit="10" stroke-linecap="round" stroke-linejoin="round"/>
<path d="M139.716 159.918C139.716 159.918 139.255 146.521 135.559 142.827C131.863 139.131 104.609 123.888 92.1363 120.654C79.6639 117.421 66.7304 122.039 58.4155 124.812C50.1006 127.584 44.5579 135.436 41.3229 152.528C38.0895 169.619 37.6283 180.245 44.5563 181.168C51.4859 182.092 61.1861 161.305 82.8973 157.147C104.609 152.99 124.472 156.686 129.09 158.995C133.711 161.305 139.716 159.918 139.716 159.918Z" fill="url(#paint6_linear_152_4276)" stroke="black" stroke-miterlimit="10" stroke-linecap="round" stroke-linejoin="round"/>
<path d="M69.5503 145.741C65.3852 147.204 62.5703 148.37 62.5703 148.37" stroke="black" stroke-miterlimit="10" stroke-linecap="round" stroke-linejoin="round"/>
<path d="M139.716 159.918C139.716 159.918 110.614 143.75 99.9899 140.516C94.441 138.827 84.4797 141.045 76.2305 143.549" stroke="black" stroke-miterlimit="10" stroke-linecap="round" stroke-linejoin="round"/>
<path d="M276.887 234.999C276.887 234.999 275.378 244.6 273.596 245.697C271.814 246.794 271.95 236.782 271.95 236.782C271.95 236.782 269.755 242.543 268.383 243.913C267.012 245.285 267.835 238.016 267.835 238.016L269.344 231.158L276.887 234.999Z" fill="white" stroke="black" stroke-miterlimit="10" stroke-linecap="round" stroke-linejoin="round"/>
<path d="M257.327 225.491L271.498 225.725C271.498 225.725 275.242 226.259 275.776 228.398C276.311 230.536 278.449 235.349 278.449 235.349L256.525 228.932L257.327 225.491Z" fill="white" stroke="black" stroke-miterlimit="10" stroke-linecap="round" stroke-linejoin="round"/>
<path d="M262.407 230.003C262.407 230.003 282.191 227.331 282.727 228.934C283.13 230.145 284.662 241.013 284.985 244.522C285.037 245.078 284.331 245.356 283.986 244.917L278.449 235.351L263.478 236.42C263.478 236.42 259.2 232.676 262.407 230.003Z" fill="white" stroke="black" stroke-miterlimit="10" stroke-linecap="round" stroke-linejoin="round"/>
<path d="M98.2521 170.116C98.2521 170.116 85.9538 179.205 90.2319 201.663C94.51 224.121 124.454 285.612 127.127 290.96C129.799 296.307 141.563 296.842 146.91 295.238C152.258 293.634 247.436 255.669 247.436 255.669C247.436 255.669 257.596 252.994 259.199 250.856C260.803 248.718 270.963 237.489 270.963 237.489C270.963 237.489 287.005 239.627 290.747 238.558C294.49 237.489 287.003 236.42 283.261 235.35C280.376 234.526 264.47 228.303 257.327 225.491C255.221 224.662 252.83 225.174 251.25 226.794C246.238 231.931 235.565 242.815 233.534 244.44C230.859 246.578 155.467 259.412 155.467 259.412C155.467 259.412 137.821 176.532 130.87 169.581C123.919 162.63 111.621 164.234 111.621 164.234" fill="url(#paint7_linear_152_4276)"/>
<path d="M98.2521 170.116C98.2521 170.116 85.9538 179.205 90.2319 201.663C94.51 224.121 124.454 285.612 127.127 290.96C129.799 296.307 141.563 296.842 146.91 295.238C152.258 293.634 247.436 255.669 247.436 255.669C247.436 255.669 257.596 252.994 259.199 250.856C260.803 248.718 270.963 237.489 270.963 237.489C270.963 237.489 287.005 239.627 290.747 238.558C294.49 237.489 287.003 236.42 283.261 235.35C280.376 234.526 264.47 228.303 257.327 225.491C255.221 224.662 252.83 225.174 251.25 226.794C246.238 231.931 235.565 242.815 233.534 244.44C230.859 246.578 155.467 259.412 155.467 259.412C155.467 259.412 137.821 176.532 130.87 169.581C123.919 162.63 111.621 164.234 111.621 164.234" stroke="black" stroke-miterlimit="10" stroke-linecap="round" stroke-linejoin="round"/>
<path d="M197.705 275.436C222.677 265.545 247.435 255.669 247.435 255.669C247.435 255.669 257.595 252.996 259.199 250.856C260.803 248.718 270.962 237.489 270.962 237.489C270.962 237.489 287.004 239.627 290.746 238.558C294.49 237.489 287.003 236.42 283.261 235.351C280.375 234.526 264.47 228.302 257.326 225.491C255.22 224.662 252.83 225.174 251.249 226.794C246.238 231.931 235.565 242.815 233.533 244.44C232.143 245.552 211.081 249.558 191.188 253.146L197.705 275.436Z" fill="white" stroke="black" stroke-miterlimit="10" stroke-linecap="round" stroke-linejoin="round"/>
<path d="M30.5804 380.681L7.2929 535.464C6.99202 537.031 9.2693 537.602 9.7443 536.081L44.8351 383.227L30.5804 380.681Z" fill="#FDCD2F" stroke="black" stroke-miterlimit="10" stroke-linecap="round" stroke-linejoin="round"/>
<path d="M65.3398 381.692L75.4753 535.17C75.5945 536.762 77.942 536.717 78.0031 535.124L79.7641 380.421L65.3398 381.692Z" fill="#FDCD2F" stroke="black" stroke-miterlimit="10" stroke-linecap="round" stroke-linejoin="round"/>
<path d="M99.502 384.012L127.303 534.813C127.645 536.371 129.962 535.998 129.798 534.411L113.604 380.727L99.502 384.012Z" fill="#FDCD2F" stroke="black" stroke-miterlimit="10" stroke-linecap="round" stroke-linejoin="round"/>
<path d="M153.236 382.732L175.982 534.562C176.26 536.132 178.59 535.854 178.493 534.262L167.462 380.024L153.236 382.732Z" fill="#FDCD2F" stroke="black" stroke-miterlimit="10" stroke-linecap="round" stroke-linejoin="round"/>
<path d="M131.504 351.832C131.504 351.832 104.769 342.92 92.2938 310.84C79.8169 278.758 59.3214 223.506 45.0621 216.378C30.8043 209.248 3.17764 222.616 1.39522 274.303C-0.387191 325.99 3.79164 364.451 15.3078 377.118C25.4907 388.318 42.8001 402.574 102.875 403.591C156.522 404.5 178.433 384.05 185.861 377.118C193.497 369.99 205.469 355.397 195.666 355.397C185.864 355.397 143.979 355.397 131.504 351.832Z" fill="white" stroke="black" stroke-miterlimit="10" stroke-linecap="round" stroke-linejoin="round"/>
<defs>
<linearGradient id="paint0_linear_152_4276" x1="320.599" y1="191.396" x2="320.599" y2="215.833" gradientUnits="userSpaceOnUse">
<stop stop-color="#FFDD2D"/>
<stop offset="1" stop-color="#FFB500"/>
</linearGradient>
<linearGradient id="paint1_linear_152_4276" x1="311.426" y1="225.207" x2="311.426" y2="234.434" gradientUnits="userSpaceOnUse">
<stop stop-color="#FFDD2D"/>
<stop offset="1" stop-color="#FFB500"/>
</linearGradient>
<linearGradient id="paint2_linear_152_4276" x1="294.381" y1="479.865" x2="294.381" y2="536.996" gradientUnits="userSpaceOnUse">
<stop stop-color="#FFDD2D"/>
<stop offset="1" stop-color="#FFB500"/>
</linearGradient>
<linearGradient id="paint3_linear_152_4276" x1="160.103" y1="140.06" x2="160.103" y2="208.422" gradientUnits="userSpaceOnUse">
<stop stop-color="#FFDD2D"/>
<stop offset="1" stop-color="#FFB500"/>
</linearGradient>
<linearGradient id="paint4_linear_152_4276" x1="200.996" y1="484.364" x2="200.996" y2="536.999" gradientUnits="userSpaceOnUse">
<stop stop-color="#FFDD2D"/>
<stop offset="1" stop-color="#FFB500"/>
</linearGradient>
<linearGradient id="paint5_linear_152_4276" x1="101.752" y1="143.831" x2="101.752" y2="360.191" gradientUnits="userSpaceOnUse">
<stop stop-color="#FFDD2D"/>
<stop offset="1" stop-color="#FFB500"/>
</linearGradient>
<linearGradient id="paint6_linear_152_4276" x1="89.3864" y1="119.549" x2="89.3864" y2="181.198" gradientUnits="userSpaceOnUse">
<stop stop-color="#FFDD2D"/>
<stop offset="1" stop-color="#FFB500"/>
</linearGradient>
<linearGradient id="paint7_linear_152_4276" x1="190.548" y1="164.074" x2="190.548" y2="296.033" gradientUnits="userSpaceOnUse">
<stop stop-color="#FFDD2D"/>
<stop offset="1" stop-color="#FFB500"/>
</linearGradient>
</defs>
</svg>
