<svg width="114" height="33" viewBox="0 0 114 33" fill="none" xmlns="http://www.w3.org/2000/svg">
<path d="M44.437 27.5443C41.9471 27.5443 39.9287 25.5259 39.9287 23.036V5.00085H44.437V14.1793H56.7703V5.00085C59.2602 5.00085 61.2786 7.01928 61.2786 9.50913V27.5443H56.7703V18.3337H44.437V27.5443Z" fill="white"/>
<path d="M44.437 27.5443C41.9471 27.5443 39.9287 25.5259 39.9287 23.036V5.00085H44.437V14.1793H56.7703V5.00085C59.2602 5.00085 61.2786 7.01928 61.2786 9.50913V27.5443H56.7703V18.3337H44.437V27.5443Z" fill="white"/>
<path d="M62.7619 27.5443L73.9997 5.13062C74.0396 5.05108 74.121 5.00085 74.21 5.00085H78.9435C79.0323 5.00085 79.1135 5.05086 79.1535 5.13014L90.4556 27.5443H85.4321L82.7593 22.2305H70.426L67.7532 27.5443H62.7619ZM73.1528 16.7869C72.8474 17.393 73.2879 18.1083 73.9666 18.1083H80.6662L76.5766 9.99262L73.1528 16.7869Z" fill="white"/>
<path d="M62.7619 27.5443L73.9997 5.13062C74.0396 5.05108 74.121 5.00085 74.21 5.00085H78.9435C79.0323 5.00085 79.1135 5.05086 79.1535 5.13014L90.4556 27.5443H85.4321L82.7593 22.2305H70.426L67.7532 27.5443H62.7619ZM73.1528 16.7869C72.8474 17.393 73.2879 18.1083 73.9666 18.1083H80.6662L76.5766 9.99262L73.1528 16.7869Z" fill="white"/>
<path d="M91.9739 5.00085H111.207C112.75 5.00085 114 6.25115 114 7.79347V27.5443H109.492V9.15529H96.4821V27.5443C93.9923 27.5443 91.9739 25.5259 91.9739 23.036V5.00085Z" fill="white"/>
<path d="M91.9739 5.00085H111.207C112.75 5.00085 114 6.25115 114 7.79347V27.5443H109.492V9.15529H96.4821V27.5443C93.9923 27.5443 91.9739 25.5259 91.9739 23.036V5.00085Z" fill="white"/>
<g clip-path="url(#clip0_250_980)">
<mask id="mask0_250_980" style="mask-type:luminance" maskUnits="userSpaceOnUse" x="-1" y="0" width="34" height="33">
<path d="M20.9725 0.000915022C25.0225 0.000915199 27.0475 0.000915287 28.5952 0.789177C29.9566 1.48162 31.0632 2.58808 31.7556 3.94945C32.5439 5.49705 32.5439 7.52194 32.5439 11.5717L32.5439 20.973C32.5439 25.0228 32.5439 27.0477 31.7556 28.5953C31.0632 29.9567 29.9566 31.0631 28.5952 31.7556C27.0475 32.5438 25.0225 32.5438 20.9725 32.5438L11.5707 32.5438C7.52068 32.5438 5.49567 32.5438 3.94799 31.7556C2.58654 31.0613 1.48182 29.9567 0.787538 28.5953C-0.000767612 27.0477 -0.000767609 25.0228 -0.000767432 20.973L-0.000767022 11.5717C-0.000766844 7.52194 -0.00076667 5.49705 0.787539 3.94945C1.48183 2.58808 2.58654 1.48162 3.94799 0.789176C5.49567 0.000914345 7.52068 0.000914434 11.5707 0.000914611L20.9725 0.000915022Z" fill="white"/>
</mask>
<g mask="url(#mask0_250_980)">
<path fill-rule="evenodd" clip-rule="evenodd" d="M28.5952 0.789177C27.0475 0.000915287 25.0225 0.000915199 20.9725 0.000915022L11.5707 0.000914611C7.52068 0.000914434 5.49567 0.000914345 3.94799 0.789176C2.58654 1.48162 1.48183 2.58807 0.787538 3.94945C-0.000766994 5.49705 -0.000767083 7.52194 -0.00076726 11.5717L-0.000767671 20.973C-0.000767848 25.0228 -0.000767936 27.0477 0.787537 28.5953C1.48183 29.9567 2.58654 31.0613 3.94799 31.7556C5.49567 32.5438 7.52068 32.5438 11.5707 32.5438L20.9725 32.5438C25.0225 32.5438 27.0475 32.5438 28.5952 31.7556C29.9566 31.0631 31.0632 29.9567 31.7556 28.5953C32.5439 27.0477 32.5439 25.0228 32.5439 20.973L32.5439 11.5717C32.5439 7.52194 32.5439 5.49705 31.7556 3.94945C31.0632 2.58808 29.9566 1.48162 28.5952 0.789177ZM7.26094 1.70496C4.19254 1.70496 1.70511 4.19239 1.70511 7.26079L1.70511 25.2805C1.70511 28.3489 4.19254 30.8363 7.26094 30.8363L25.2806 30.8363C28.349 30.8363 30.8365 28.3489 30.8365 25.2805L30.8365 7.26079C30.8365 4.19239 28.349 1.70496 25.2806 1.70496L7.26094 1.70496Z" fill="white"/>
</g>
<path d="M16.3197 5.01025C21.4465 5.01025 24.8118 7.93998 24.8118 12.6338C24.8118 20.5095 13.1116 17.8948 12.168 23.1242H25.0813C25.0888 23.1242 25.0949 23.1302 25.0949 23.1377V23.1377C25.0949 25.566 23.1264 27.5345 20.6981 27.5345H10.3799C8.76188 27.5345 7.4502 26.2228 7.4502 24.6048V24.6048C7.4502 13.2954 20.4085 18.1783 20.4085 12.4133C20.4085 10.4287 18.7101 9.23158 16.2883 9.23158C15.215 9.23158 14.3015 9.48843 13.5874 9.97742C11.5809 11.3515 9.88208 13.8309 7.4502 13.8309V13.8309C7.4502 8.50703 11.0672 5.01025 16.3197 5.01025Z" fill="white"/>
<path d="M16.3197 5.01025C21.4465 5.01025 24.8118 7.93998 24.8118 12.6338C24.8118 20.5095 13.1116 17.8948 12.168 23.1242H25.0813C25.0888 23.1242 25.0949 23.1302 25.0949 23.1377V23.1377C25.0949 25.566 23.1264 27.5345 20.6981 27.5345H10.3799C8.76188 27.5345 7.4502 26.2228 7.4502 24.6048V24.6048C7.4502 13.2954 20.4085 18.1783 20.4085 12.4133C20.4085 10.4287 18.7101 9.23158 16.2883 9.23158C15.215 9.23158 14.3015 9.48843 13.5874 9.97742C11.5809 11.3515 9.88208 13.8309 7.4502 13.8309V13.8309C7.4502 8.50703 11.0672 5.01025 16.3197 5.01025Z" fill="white"/>
</g>
<defs>
<clipPath id="clip0_250_980">
<rect width="32.5447" height="32.5447" fill="white"/>
</clipPath>
</defs>
</svg>
