<svg width="114" height="34" viewBox="0 0 114 34" fill="none" xmlns="http://www.w3.org/2000/svg">
<path d="M44.438 28.272C41.9481 28.272 39.9297 26.2535 39.9297 23.7637V5.72852H44.438V14.9069H56.7713V5.72852C59.2612 5.72852 61.2796 7.74694 61.2796 10.2368V28.272H56.7713V19.0614H44.438V28.272Z" fill="black"/>
<path d="M44.438 28.272C41.9481 28.272 39.9297 26.2535 39.9297 23.7637V5.72852H44.438V14.9069H56.7713V5.72852C59.2612 5.72852 61.2796 7.74694 61.2796 10.2368V28.272H56.7713V19.0614H44.438V28.272Z" fill="black"/>
<path d="M62.7629 28.272L74.0007 5.85828C74.0406 5.77874 74.122 5.72852 74.2109 5.72852H78.9445C79.0333 5.72852 79.1145 5.77852 79.1545 5.8578L90.4566 28.272H85.4331L82.7603 22.9581H70.427L67.7542 28.272H62.7629ZM73.1537 17.5146C72.8483 18.1206 73.2889 18.8359 73.9675 18.8359H80.6672L76.5775 10.7203L73.1537 17.5146Z" fill="black"/>
<path d="M62.7629 28.272L74.0007 5.85828C74.0406 5.77874 74.122 5.72852 74.2109 5.72852H78.9445C79.0333 5.72852 79.1145 5.77852 79.1545 5.8578L90.4566 28.272H85.4331L82.7603 22.9581H70.427L67.7542 28.272H62.7629ZM73.1537 17.5146C72.8483 18.1206 73.2889 18.8359 73.9675 18.8359H80.6672L76.5775 10.7203L73.1537 17.5146Z" fill="black"/>
<path d="M91.9748 5.72852H111.208C112.751 5.72852 114.001 6.97881 114.001 8.52113V28.272H109.493V9.88295H96.4831V28.272C93.9933 28.272 91.9748 26.2535 91.9748 23.7637V5.72852Z" fill="black"/>
<path d="M91.9748 5.72852H111.208C112.751 5.72852 114.001 6.97881 114.001 8.52113V28.272H109.493V9.88295H96.4831V28.272C93.9933 28.272 91.9748 26.2535 91.9748 23.7637V5.72852Z" fill="black"/>
<g clip-path="url(#clip0_152_4165)">
<mask id="mask0_152_4165" style="mask-type:luminance" maskUnits="userSpaceOnUse" x="-1" y="0" width="34" height="34">
<path d="M20.9715 0.728515C25.0215 0.728515 27.0465 0.728515 28.5942 1.51678C29.9557 2.20922 31.0622 3.31568 31.7547 4.67705C32.543 6.22465 32.543 8.24954 32.543 12.2993L32.543 21.7006C32.543 25.7504 32.543 27.7753 31.7547 29.3229C31.0622 30.6843 29.9557 31.7907 28.5942 32.4832C27.0465 33.2714 25.0215 33.2714 20.9715 33.2714L11.5697 33.2714C7.5197 33.2714 5.4947 33.2714 3.94701 32.4832C2.58556 31.7889 1.48085 30.6843 0.786561 29.3229C-0.00174417 27.7753 -0.00174417 25.7504 -0.00174399 21.7006L-0.00174358 12.2993C-0.00174341 8.24954 -0.00174323 6.22465 0.786562 4.67705C1.48085 3.31568 2.58556 2.20922 3.94701 1.51678C5.4947 0.728514 7.5197 0.728515 11.5697 0.728515L20.9715 0.728515Z" fill="white"/>
</mask>
<g mask="url(#mask0_152_4165)">
<path fill-rule="evenodd" clip-rule="evenodd" d="M28.5942 1.51678C27.0465 0.728515 25.0215 0.728515 20.9715 0.728515L11.5697 0.728515C7.5197 0.728515 5.4947 0.728514 3.94701 1.51678C2.58556 2.20922 1.48085 3.31568 0.786562 4.67705C-0.00174356 6.22465 -0.00174365 8.24954 -0.00174382 12.2993L-0.00174423 21.7006C-0.00174441 25.7504 -0.0017445 27.7753 0.786561 29.3229C1.48085 30.6843 2.58556 31.7889 3.94701 32.4832C5.49469 33.2714 7.5197 33.2714 11.5697 33.2714L20.9715 33.2714C25.0215 33.2714 27.0465 33.2714 28.5942 32.4832C29.9557 31.7907 31.0622 30.6843 31.7547 29.3229C32.543 27.7753 32.543 25.7504 32.543 21.7006L32.543 12.2993C32.543 8.24954 32.543 6.22465 31.7547 4.67705C31.0622 3.31568 29.9557 2.20922 28.5942 1.51678ZM7.25996 2.43256C4.19156 2.43256 1.70413 4.91999 1.70413 7.98839L1.70413 26.0081C1.70413 29.0765 4.19156 31.5639 7.25996 31.5639L25.2797 31.5639C28.3481 31.5639 30.8355 29.0765 30.8355 26.0081L30.8355 7.98839C30.8355 4.91999 28.3481 2.43256 25.2797 2.43256L7.25996 2.43256Z" fill="black"/>
</g>
<path d="M16.3188 5.73828C21.4455 5.73828 24.8109 8.66801 24.8109 13.3619C24.8109 21.2375 13.1106 18.6228 12.1671 23.8522H25.0804C25.0879 23.8522 25.0939 23.8583 25.0939 23.8658V23.8658C25.0939 26.294 23.1254 28.2625 20.6972 28.2625H10.3789C8.7609 28.2625 7.44922 26.9508 7.44922 25.3328V25.3328C7.44922 14.0234 20.4076 18.9063 20.4076 13.1414C20.4076 11.1567 18.7091 9.95961 16.2873 9.95961C15.2141 9.95961 14.3005 10.2165 13.5864 10.7054C11.5799 12.0795 9.8811 14.559 7.44922 14.559V14.559C7.44922 9.23505 11.0662 5.73828 16.3188 5.73828Z" fill="black"/>
<path d="M16.3188 5.73828C21.4455 5.73828 24.8109 8.66801 24.8109 13.3619C24.8109 21.2375 13.1106 18.6228 12.1671 23.8522H25.0804C25.0879 23.8522 25.0939 23.8583 25.0939 23.8658V23.8658C25.0939 26.294 23.1254 28.2625 20.6972 28.2625H10.3789C8.7609 28.2625 7.44922 26.9508 7.44922 25.3328V25.3328C7.44922 14.0234 20.4076 18.9063 20.4076 13.1414C20.4076 11.1567 18.7091 9.95961 16.2873 9.95961C15.2141 9.95961 14.3005 10.2165 13.5864 10.7054C11.5799 12.0795 9.8811 14.559 7.44922 14.559V14.559C7.44922 9.23505 11.0662 5.73828 16.3188 5.73828Z" fill="black"/>
</g>
<defs>
<clipPath id="clip0_152_4165">
<rect width="32.5447" height="32.5447" fill="white" transform="translate(0 0.728516)"/>
</clipPath>
</defs>
</svg>
