<svg width="316" height="409" viewBox="0 0 316 409" fill="none" xmlns="http://www.w3.org/2000/svg">
<path d="M233.578 188.143L168.351 163.321L167.544 163.011C167.544 163.011 167.781 161.278 167.972 158.761C168.377 153.558 168.59 145.078 166.144 142.204C162.509 137.951 152.201 141.515 142.154 136.906C132.106 132.298 113.508 140.541 113.508 140.541C113.508 140.541 100.087 138.071 94.1735 147.763C91.1567 155.578 92.201 167.217 92.201 167.217C92.201 167.217 91.7747 167.382 90.965 167.669C83.1979 170.567 40.9174 186.483 31.9617 192.871C22.0801 199.878 11.1541 271.733 7.63768 292.827C4.1213 313.942 -2.12551 332.945 1.05711 340.215C4.21604 347.461 49.6578 382.448 75.7862 391.475C101.915 400.525 194.624 397.864 194.624 397.864C194.624 397.864 196.144 397.459 198.827 396.604C214.506 391.568 270.135 370.831 299.638 321.923C299.638 321.923 271.061 228.192 233.578 188.143ZM57.3494 309C52.5518 312.398 55.1164 325.581 55.1164 325.581L46.9445 318.385L67.4443 267.979L76.1846 306.675C76.1846 306.675 62.1492 305.628 57.3494 309ZM221.345 341.02C219.088 342.183 227.831 317.956 223.673 312.469C219.517 306.959 207.068 307.506 207.068 307.506L208.136 300.878C208.278 300.142 215.524 262.992 215.524 262.992L217.97 260.07C217.97 260.07 243.339 303.563 247.876 318.884C247.876 318.884 220.227 341.02 221.345 341.02Z" fill="url(#paint0_linear_239_912)"/>
<path d="M110.422 30.9302L76.7566 66.6733C76.7566 66.6733 72.1141 70.7775 73.9595 81.1458C75.8049 91.5141 80.1007 100.422 83.3479 101.111C86.593 101.803 91.143 101.809 91.143 101.809C91.143 101.809 98.3566 117.444 103.466 123.588C103.466 123.588 105.247 147.72 104.3 154.419C104.3 154.419 116.393 164.983 127.786 166.327C139.179 167.671 156.781 150.216 156.781 150.216L161.143 128.848C161.143 128.848 171.471 113.172 172.175 108.999C172.879 104.826 177.601 105.896 179.92 103.838C182.24 101.779 187.61 92.5713 188.497 83.8719C189.384 75.1725 189.447 65.1789 179.339 68.1139C170.584 65.7603 176.064 47.2481 176.064 47.2481L160.676 33.6714L110.422 30.9302Z" fill="white"/>
<path opacity="0.5" d="M168.348 163.321C167.825 164.699 167.257 166.004 166.615 167.217C161.057 177.693 136.852 197.645 136.852 197.645L129.535 175.152L125.521 197.645C117.444 194.129 92.8118 172.777 92.8118 172.777C92.8118 172.777 91.9806 170.78 90.96 167.669C91.7675 167.385 92.196 167.217 92.196 167.217C92.196 167.217 91.1516 155.578 94.1684 147.763C100.084 138.071 113.503 140.541 113.503 140.541C113.503 140.541 132.101 132.298 142.149 136.906C152.196 141.515 162.506 137.951 166.139 142.204C169.774 146.454 167.541 163.011 167.541 163.011L168.348 163.321Z" fill="white"/>
<path opacity="0.2" d="M233.577 188.142L168.351 163.321L167.543 163.011C167.543 163.011 167.78 161.277 167.972 158.76L166.617 167.216L156.973 180.328C156.973 180.328 173.282 186.213 187.07 193.595C196.656 198.726 202.16 209.163 200.898 219.962L188.874 322.779L183.958 381.165L198.827 396.604C214.505 391.567 270.134 370.831 299.637 321.922C299.637 321.922 271.06 228.192 233.577 188.142ZM221.344 341.02C219.088 342.183 227.83 317.956 223.672 312.469C219.516 306.959 207.068 307.506 207.068 307.506L208.136 300.878C208.278 300.141 215.524 262.992 215.524 262.992L217.97 260.07C217.97 260.07 243.338 303.563 247.875 318.884C247.875 318.884 220.227 341.02 221.344 341.02Z" fill="black"/>
<path opacity="0.2" d="M80.6051 312.469L70.4628 278.574C70.4628 278.574 52.278 216.549 39.8081 201.252L43.0854 244.872C43.0854 244.872 32.3856 296.982 22.4802 312.469C12.5749 327.932 10.4367 331.804 22.4802 331.804C34.5475 331.804 63.8112 355.155 63.8112 355.155L61.5545 335.676L80.6051 312.469ZM55.1161 325.581L46.9442 318.384L67.4439 267.979L76.1843 306.675C76.1843 306.675 62.1467 305.63 57.3469 309.002C52.5514 312.398 55.1161 325.581 55.1161 325.581Z" fill="black"/>
<path d="M103.467 123.588C103.467 123.588 105.34 141.865 103.467 150.216" stroke="black" stroke-width="1.1031" stroke-miterlimit="10" stroke-linecap="round" stroke-linejoin="round"/>
<path d="M158.641 147.768C158.641 147.768 158.536 138.863 160.676 130.306" stroke="black" stroke-width="1.1031" stroke-miterlimit="10" stroke-linecap="round" stroke-linejoin="round"/>
<path d="M163.538 44.5566C163.538 44.5566 174.595 58.4499 174.029 68.9409C173.463 79.432 172.612 91.9083 172.894 104.1C173.178 116.293 153.329 141.812 143.122 144.079C132.916 146.347 124.126 146.915 117.603 140.393C111.083 133.87 104.56 124.798 96.0548 113.172C87.5492 101.547 89.5346 76.0275 89.5346 76.0275" stroke="black" stroke-width="1.1031" stroke-miterlimit="10" stroke-linecap="round" stroke-linejoin="round"/>
<path d="M136.92 85.7539C136.244 89.5631 135.956 93.4434 136.057 97.3108C136.143 100.549 136.623 104.051 138.893 106.363C140.116 107.61 141.89 108.607 142.123 110.336C142.33 111.872 141.156 113.265 139.851 114.1C138.546 114.936 137.032 115.453 135.865 116.469" stroke="black" stroke-width="1.1031" stroke-miterlimit="10" stroke-linecap="round" stroke-linejoin="round"/>
<path d="M119.36 117.817C119.36 117.817 120.639 126.058 131.69 127.782" stroke="black" stroke-width="1.1031" stroke-miterlimit="10" stroke-linecap="round" stroke-linejoin="round"/>
<path d="M120.511 92.0373C120.511 94.4188 119.482 96.3503 118.211 96.3503C116.941 96.3503 115.912 94.4188 115.912 92.0373C115.912 89.6557 116.941 87.7241 118.211 87.7241C119.482 87.7263 120.511 89.6557 120.511 92.0373Z" fill="black"/>
<path d="M153.477 93.0729C153.477 95.4545 152.448 97.386 151.178 97.386C149.907 97.386 148.878 95.4545 148.878 93.0729C148.878 90.6913 149.907 88.7598 151.178 88.7598C152.446 88.7619 153.477 90.6913 153.477 93.0729Z" fill="black"/>
<path d="M146.827 82.6338C146.827 82.6338 157.546 71.9145 166.616 83.8698" stroke="black" stroke-width="2.2062" stroke-miterlimit="10" stroke-linecap="round" stroke-linejoin="round"/>
<path d="M124.152 82.8405C124.152 82.8405 117.35 75.2134 106.631 82.8405" stroke="black" stroke-width="2.2062" stroke-miterlimit="10" stroke-linecap="round" stroke-linejoin="round"/>
<path d="M104.298 133.631C104.298 133.631 110.864 151.728 125.526 156.861C140.19 161.992 159.658 135.358 159.658 135.358L158.64 131.893C158.64 131.893 145.883 148.467 131.691 145.642C117.498 142.815 103.465 123.588 103.465 123.588L104.298 133.631Z" fill="black"/>
<path d="M91.1436 101.112C91.1436 101.112 82.4033 104.197 80.0798 97.3863C77.7564 90.5753 69.7891 72.6488 76.7594 66.6733C83.7319 60.6979 89.3348 74.5631 89.3348 74.5631" stroke="black" stroke-width="1.1031" stroke-miterlimit="10" stroke-linecap="round" stroke-linejoin="round"/>
<path d="M172.879 104.824C172.879 104.824 181.004 106.458 183.327 99.6472C185.651 92.8362 193.618 74.9098 186.648 68.9321C179.675 62.9566 174.072 76.8219 174.072 76.8219" stroke="black" stroke-width="1.1031" stroke-miterlimit="10" stroke-linecap="round" stroke-linejoin="round"/>
<path d="M89.3331 92.0373C91.7534 91.9275 95.7285 89.5674 97.0032 87.5046C98.278 85.4438 98.8185 83.0192 99.232 80.6312C100.024 76.0575 100.431 71.4171 100.446 66.7766C100.453 64.9635 100.403 63.1117 100.933 61.3782C101.484 59.5716 102.63 58.0083 103.855 56.572C106.906 52.9975 110.578 49.9764 113.478 46.2791C116.379 42.5818 118.511 37.9005 117.727 33.2665C117.727 33.2665 137.548 51.3846 166.121 45.7817C181.502 42.7649 196.267 29.2657 194.469 12.2996C193.83 6.26165 189.392 1.92053 183.632 0.48641C176.028 -1.40421 169.196 2.64835 162.307 5.24742C149.747 9.98474 137.458 1.84947 124.768 0.48641C113.916 -0.680694 100.597 0.665157 94.9447 11.4555C94.9447 11.4555 75.4527 13.7466 66.9126 29.7544C58.3747 45.7644 74.6043 67.9287 74.6043 67.9287C74.6043 67.9287 81.1375 60.0216 89.5312 76.0295L89.3331 92.0373Z" fill="black"/>
<path d="M164.766 40.4631C164.766 40.4631 159.725 66.7315 172.878 79.4491C172.878 79.4491 175.757 71.5529 178.674 69.6256C178.674 69.6256 185.996 55.7474 176.37 40.4609C166.749 25.1766 164.766 40.4631 164.766 40.4631Z" fill="black"/>
<path opacity="0.2" d="M188.862 10.5708C186.915 17.8103 180.793 23.4111 173.851 26.2384C155.591 33.676 137.856 25.4266 119.574 23.8116C104.632 22.4916 88.1616 35.9521 87.1172 51.2924" stroke="white" stroke-width="1.1031" stroke-miterlimit="10" stroke-linecap="round" stroke-linejoin="round"/>
<path opacity="0.2" d="M75.7773 47.246C76.053 35.1702 84.031 23.6132 95.2262 19.0762" stroke="white" stroke-width="1.1031" stroke-miterlimit="10" stroke-linecap="round" stroke-linejoin="round"/>
<path d="M99.2568 147.768C99.2568 147.768 111.287 161.024 127.692 167.221C127.692 167.221 149.55 160.881 160.676 145.64" stroke="black" stroke-width="1.1031" stroke-miterlimit="10" stroke-linecap="round" stroke-linejoin="round"/>
<path d="M121.61 109.61C131.321 105.156 135.583 93.6733 131.129 83.9624C126.675 74.2516 115.192 69.9898 105.482 74.4436C95.7707 78.8973 91.5089 90.38 95.9627 100.091C100.416 109.802 111.899 114.064 121.61 109.61Z" stroke="black" stroke-width="1.1031" stroke-miterlimit="10" stroke-linecap="round" stroke-linejoin="round"/>
<path d="M159.043 111.226C169.646 109.923 177.185 100.272 175.883 89.6694C174.581 79.0665 164.93 71.5268 154.327 72.8291C143.724 74.1313 136.184 83.7824 137.486 94.3853C138.789 104.988 148.44 112.528 159.043 111.226Z" stroke="black" stroke-width="1.1031" stroke-miterlimit="10" stroke-linecap="round" stroke-linejoin="round"/>
<path d="M103.467 140.552C103.467 140.552 97.5864 141.743 94.1626 147.765C90.7388 153.79 92.8038 172.763 92.8038 172.763C92.8038 172.763 110.476 190.255 125.526 197.632L129.966 172.666L136.857 197.632C136.857 197.632 160.162 181.151 166.616 167.219C166.616 167.219 168.719 150.974 166.616 145.638C164.512 140.302 159.66 140.55 159.66 140.55" stroke="black" stroke-width="1.1031" stroke-miterlimit="10" stroke-linecap="round" stroke-linejoin="round"/>
<path d="M75.7776 307.512C75.7776 307.512 68.8783 261.226 59.6836 242.342" stroke="black" stroke-width="1.1031" stroke-miterlimit="10" stroke-linecap="round" stroke-linejoin="round"/>
<path d="M39.8062 201.252C39.8062 201.252 48.5379 213.494 54.1021 225.178" stroke="black" stroke-width="1.1031" stroke-miterlimit="10" stroke-linecap="round" stroke-linejoin="round"/>
<path d="M221.347 235.808C223.778 226.586 226.362 218.496 228.944 213.216" stroke="black" stroke-width="1.1031" stroke-miterlimit="10" stroke-linecap="round" stroke-linejoin="round"/>
<path d="M207.066 307.512C207.066 307.512 212.051 275.781 217.982 249.628" stroke="black" stroke-width="1.1031" stroke-miterlimit="10" stroke-linecap="round" stroke-linejoin="round"/>
<path d="M215.518 262.982C220.264 256.644 227.146 251.939 234.773 249.814" stroke="black" stroke-width="1.1031" stroke-miterlimit="10" stroke-linecap="round" stroke-linejoin="round"/>
<path d="M167.551 163.011C167.551 163.011 207.687 179.043 233.589 188.147C233.589 188.147 265.458 218.117 299.627 321.925C299.627 321.925 268.307 374.595 208.755 391.481" stroke="black" stroke-width="1.1031" stroke-miterlimit="10" stroke-linecap="round" stroke-linejoin="round"/>
<path d="M219.099 342.907L247.874 318.882C247.874 318.882 263.096 307.312 278.927 315.228" stroke="black" stroke-width="1.1031" stroke-miterlimit="10" stroke-linecap="round" stroke-linejoin="round"/>
<path d="M217.981 260.077C217.981 260.077 241.784 295.135 247.871 318.882" stroke="black" stroke-width="1.1031" stroke-miterlimit="10" stroke-linecap="round" stroke-linejoin="round"/>
<path d="M55.3764 326.912L46.9547 318.882C46.9547 318.882 34.4546 316.696 20.3008 326.186" stroke="black" stroke-width="1.1031" stroke-miterlimit="10" stroke-linecap="round" stroke-linejoin="round"/>
<path d="M46.9546 318.882C46.9546 318.882 57.4133 284.527 67.7299 266.791" stroke="black" stroke-width="1.1031" stroke-miterlimit="10" stroke-linecap="round" stroke-linejoin="round"/>
<path d="M92.1874 167.221C92.1874 167.221 34.4545 188.883 28.7934 195.192C23.1323 201.502 1.61841 322.663 1.05209 336.528C0.546054 348.923 45.5162 376.772 67.7299 388.512" stroke="black" stroke-width="1.1031" stroke-miterlimit="10" stroke-linecap="round" stroke-linejoin="round"/>
<path d="M301.199 147.768H235.412C227.645 147.768 221.347 141.471 221.347 133.702V95.108C221.347 87.341 227.643 81.0425 235.412 81.0425H301.199C308.966 81.0425 315.264 87.3388 315.264 95.108V133.702C315.262 141.469 308.966 147.768 301.199 147.768Z" fill="white" stroke="black" stroke-width="1.1031" stroke-miterlimit="10" stroke-linecap="round" stroke-linejoin="round"/>
<path d="M251.648 101.111L233.588 112.449L250.348 127.311" stroke="black" stroke-width="1.1031" stroke-miterlimit="10" stroke-linecap="round" stroke-linejoin="round"/>
<path d="M284.556 128.392L300.785 114.561L282.051 102.278" stroke="black" stroke-width="1.1031" stroke-miterlimit="10" stroke-linecap="round" stroke-linejoin="round"/>
<path d="M260.428 136.902L273.759 95.0996" stroke="black" stroke-width="1.1031" stroke-miterlimit="10" stroke-linecap="round" stroke-linejoin="round"/>
<path d="M135.36 208.153C135.36 210.251 133.661 211.95 131.563 211.95C129.466 211.95 127.767 210.251 127.767 208.153C127.767 206.056 129.466 204.357 131.563 204.357C133.661 204.357 135.36 206.056 135.36 208.153Z" fill="black"/>
<path d="M206.765 400.829L224.372 318.143C225.537 312.669 221.364 307.512 215.766 307.512H62.2526C56.7099 307.512 52.5454 312.577 53.6199 318.016L69.4059 397.95C70.2048 401.998 73.7105 404.948 77.8362 405.041L197.955 407.793C202.184 407.89 205.884 404.965 206.765 400.829Z" fill="white" stroke="black" stroke-width="1.1031" stroke-miterlimit="10" stroke-linecap="round" stroke-linejoin="round"/>
<path d="M150.742 355.161C150.742 361.929 145.255 367.418 138.485 367.418C131.715 367.418 126.228 361.931 126.228 355.161C126.228 348.393 131.715 342.904 138.485 342.904C145.255 342.904 150.742 348.393 150.742 355.161Z" fill="black"/>
<path d="M174.828 315.357H193.067" stroke="black" stroke-width="1.1031" stroke-miterlimit="10" stroke-linecap="round" stroke-linejoin="round"/>
<path d="M87.729 315.357H156.963" stroke="black" stroke-width="1.1031" stroke-miterlimit="10" stroke-linecap="round" stroke-linejoin="round"/>
<path d="M132.849 95.0996H137.989" stroke="black" stroke-width="1.1031" stroke-miterlimit="10" stroke-linecap="round" stroke-linejoin="round"/>
<defs>
<linearGradient id="paint0_linear_239_912" x1="149.909" y1="135.506" x2="149.909" y2="398.229" gradientUnits="userSpaceOnUse">
<stop stop-color="#030DF3"/>
<stop offset="1" stop-color="#0108AA"/>
</linearGradient>
</defs>
</svg>
